# xmcd
#
# Track frame offsets: 
#        150
#        18269
#        30722
#        51081
#        65893
#        85778
#        99283
#        119097
#        135726
#        155236
#        168836
#        184754
#        197465
#
# Disc length: 2832 seconds
#
# Revision: 0
# Processed by: cddbd v1.5.2PL0 Copyright (c) Steve Scherf et al.
# Submitted via: ExactAudioCopy v0.95b4
#
DISCID=ae0b0e0d
DTITLE=Various Artist - Cuba Club
DYEAR=2007
DGENRE=Ethnic
TTITLE0=Deeper Sin - electro cat
TTITLE1=Carmelos - celia cruz
TTITLE2=Cascade Orange - comatrixx
TTITLE3=El Gallo E'Jando - company segundo
TTITLE4=Discover Your World - papillon
TTITLE5=Maleo De Cana - celia cruz
TTITLE6=Satin - lydia
TTITLE7=Juramento - company segundo
TTITLE8=Wonderbird - stargazer
TTITLE9=Mambo del Amor - celia cruz
TTITLE10=Para Mi Isla - velvet brids
TTITLE11=San Luisera - company segundo
TTITLE12=Get It! - mix u
EXTD=
EXTT0=
EXTT1=
EXTT2=
EXTT3=
EXTT4=
EXTT5=
EXTT6=
EXTT7=
EXTT8=
EXTT9=
EXTT10=
EXTT11=
EXTT12=
PLAYORDER=
